<svg width="24" height="25" viewBox="0 0 24 25" fill="none" xmlns="http://www.w3.org/2000/svg">
<path d="M12.3013 2.75C8.62127 2.75 5.64127 5.73 5.64127 9.41V11.51C5.64127 12.19 5.36127 13.21 5.01127 13.79L3.74127 15.91C2.96127 17.22 3.50127 18.68 4.94127 19.16C9.72127 20.75 14.8913 20.75 19.6713 19.16C21.0213 18.71 21.6013 17.13 20.8713 15.91L19.6013 13.79C19.2513 13.21 18.9713 12.18 18.9713 11.51V9.41C18.9613 5.75 15.9613 2.75 12.3013 2.75Z" stroke="#221F1F" stroke-width="1.5" stroke-miterlimit="10" stroke-linecap="round"/>
<path d="M15.6112 19.5698C15.6112 21.3998 14.1112 22.8998 12.2812 22.8998C11.3712 22.8998 10.5312 22.5198 9.93123 21.9198C9.33123 21.3198 8.95123 20.4798 8.95123 19.5698" stroke="#221F1F" stroke-width="1.5" stroke-miterlimit="10"/>
</svg>
