<svg width="22" height="22" viewBox="0 0 22 22" fill="none" xmlns="http://www.w3.org/2000/svg">
<path d="M21.0833 16.4171C21.1016 17.1046 20.9183 17.7555 20.5883 18.3146C20.4049 18.6446 20.1575 18.9472 19.8825 19.1947C19.25 19.7813 18.4158 20.1388 17.4899 20.1663C16.1516 20.1938 14.9691 19.5063 14.3183 18.4522C13.9699 17.9113 13.7591 17.2605 13.75 16.573C13.7225 15.418 14.2358 14.373 15.0608 13.6855C15.6841 13.1721 16.4725 12.8513 17.3341 12.833C19.36 12.7872 21.0375 14.3913 21.0833 16.4171Z" stroke="#446EFF" stroke-width="1.5" stroke-miterlimit="10" stroke-linecap="round" stroke-linejoin="round"/>
<path d="M15.9866 16.5274L16.9124 17.4073L18.8282 15.5557" stroke="#446EFF" stroke-width="1.5" stroke-linecap="round" stroke-linejoin="round"/>
<path d="M2.90576 6.81934L10.9999 11.5035L19.0391 6.84681" stroke="#446EFF" stroke-width="1.5" stroke-linecap="round" stroke-linejoin="round"/>
<path d="M10.9999 19.8083V11.4941" stroke="#446EFF" stroke-width="1.5" stroke-linecap="round" stroke-linejoin="round"/>
<path d="M19.8091 8.40551V13.5939C19.8091 13.6397 19.8091 13.6763 19.8 13.7222C19.1583 13.163 18.3333 12.833 17.4166 12.833C16.5549 12.833 15.7574 13.1355 15.1249 13.6397C14.2816 14.3089 13.7499 15.3447 13.7499 16.4997C13.7499 17.1872 13.9424 17.838 14.2816 18.388C14.3641 18.5347 14.4649 18.6722 14.5749 18.8005L12.8975 19.7264C11.8525 20.313 10.1474 20.313 9.10244 19.7264L4.20745 17.013C3.09828 16.3989 2.1908 14.8589 2.1908 13.5939V8.40551C2.1908 7.14051 3.09828 5.60053 4.20745 4.98636L9.10244 2.27301C10.1474 1.68634 11.8525 1.68634 12.8975 2.27301L17.7925 4.98636C18.9016 5.60053 19.8091 7.14051 19.8091 8.40551Z" stroke="#446EFF" stroke-width="1.5" stroke-linecap="round" stroke-linejoin="round"/>
</svg>
