<svg width="20" height="19" viewBox="0 0 20 19" fill="none" xmlns="http://www.w3.org/2000/svg">
<path fill-rule="evenodd" clip-rule="evenodd" d="M17.103 7.78382H3.09528C2.76992 7.78382 2.50586 7.51976 2.50586 7.1944C2.50586 6.86904 2.76992 6.60498 3.09528 6.60498H17.103C17.4284 6.60498 17.6924 6.86904 17.6924 7.1944C17.6924 7.51976 17.4284 7.78382 17.103 7.78382Z" fill="#E7E7E7"/>
<path fill-rule="evenodd" clip-rule="evenodd" d="M13.5935 10.8532C13.2682 10.8532 13.001 10.5891 13.001 10.2637C13.001 9.93838 13.2611 9.67432 13.5865 9.67432H13.5935C13.9189 9.67432 14.183 9.93838 14.183 10.2637C14.183 10.5891 13.9189 10.8532 13.5935 10.8532Z" fill="#E7E7E7"/>
<path fill-rule="evenodd" clip-rule="evenodd" d="M10.1062 10.8532C9.78088 10.8532 9.51367 10.5891 9.51367 10.2637C9.51367 9.93838 9.7738 9.67432 10.0992 9.67432H10.1062C10.4316 9.67432 10.6957 9.93838 10.6957 10.2637C10.6957 10.5891 10.4316 10.8532 10.1062 10.8532Z" fill="#E7E7E7"/>
<path fill-rule="evenodd" clip-rule="evenodd" d="M6.61142 10.8532C6.28606 10.8532 6.01807 10.5891 6.01807 10.2637C6.01807 9.93838 6.27898 9.67432 6.60434 9.67432H6.61142C6.93677 9.67432 7.20083 9.93838 7.20083 10.2637C7.20083 10.5891 6.93677 10.8532 6.61142 10.8532Z" fill="#E7E7E7"/>
<path fill-rule="evenodd" clip-rule="evenodd" d="M13.5935 13.9078C13.2682 13.9078 13.001 13.6438 13.001 13.3184C13.001 12.9931 13.2611 12.729 13.5865 12.729H13.5935C13.9189 12.729 14.183 12.9931 14.183 13.3184C14.183 13.6438 13.9189 13.9078 13.5935 13.9078Z" fill="#E7E7E7"/>
<path fill-rule="evenodd" clip-rule="evenodd" d="M10.1062 13.9078C9.78088 13.9078 9.51367 13.6438 9.51367 13.3184C9.51367 12.9931 9.7738 12.729 10.0992 12.729H10.1062C10.4316 12.729 10.6957 12.9931 10.6957 13.3184C10.6957 13.6438 10.4316 13.9078 10.1062 13.9078Z" fill="#E7E7E7"/>
<path fill-rule="evenodd" clip-rule="evenodd" d="M6.61142 13.9078C6.28606 13.9078 6.01807 13.6438 6.01807 13.3184C6.01807 12.9931 6.27898 12.729 6.60434 12.729H6.61142C6.93677 12.729 7.20083 12.9931 7.20083 13.3184C7.20083 13.6438 6.93677 13.9078 6.61142 13.9078Z" fill="#E7E7E7"/>
<path fill-rule="evenodd" clip-rule="evenodd" d="M13.2735 4.55134C12.9481 4.55134 12.6841 4.28728 12.6841 3.96192V1.37555C12.6841 1.05019 12.9481 0.786133 13.2735 0.786133C13.5989 0.786133 13.8629 1.05019 13.8629 1.37555V3.96192C13.8629 4.28728 13.5989 4.55134 13.2735 4.55134Z" fill="#E7E7E7"/>
<path fill-rule="evenodd" clip-rule="evenodd" d="M6.92487 4.55134C6.59951 4.55134 6.33545 4.28728 6.33545 3.96192V1.37555C6.33545 1.05019 6.59951 0.786133 6.92487 0.786133C7.25023 0.786133 7.51429 1.05019 7.51429 1.37555V3.96192C7.51429 4.28728 7.25023 4.55134 6.92487 4.55134Z" fill="#E7E7E7"/>
<mask id="mask0_249_4810" style="mask-type:luminance" maskUnits="userSpaceOnUse" x="2" y="2" width="16" height="16">
<path fill-rule="evenodd" clip-rule="evenodd" d="M2.43311 2.02734H17.758V17.683H2.43311V2.02734Z" fill="white"/>
</mask>
<g mask="url(#mask0_249_4810)">
<path fill-rule="evenodd" clip-rule="evenodd" d="M6.77202 3.20618C4.7342 3.20618 3.61194 4.29307 3.61194 6.26645V13.378C3.61194 15.3946 4.7342 16.5043 6.77202 16.5043H13.4191C15.4569 16.5043 16.5792 15.415 16.5792 13.4377V6.26645C16.5823 5.29587 16.3214 4.54141 15.8035 4.02273C15.2707 3.48832 14.4494 3.20618 13.4262 3.20618H6.77202ZM13.4191 17.6831H6.77202C4.09605 17.6831 2.43311 16.0335 2.43311 13.378V6.26645C2.43311 3.651 4.09605 2.02734 6.77202 2.02734H13.4262C14.7693 2.02734 15.8797 2.42972 16.6381 3.18968C17.3745 3.9292 17.7619 4.99252 17.758 6.26802V13.4377C17.758 16.0563 16.0951 17.6831 13.4191 17.6831Z" fill="#E7E7E7"/>
</g>
</svg>
