<svg width="22" height="22" viewBox="0 0 22 22" fill="none" xmlns="http://www.w3.org/2000/svg">
<path fill-rule="evenodd" clip-rule="evenodd" d="M6.5945 4.42906C6.96295 3.75941 7.36378 3.31176 7.95856 3.07503C9.04848 2.64164 12.952 2.64164 14.0411 3.07511C14.6355 3.31172 15.0365 3.75929 15.4052 4.42881L15.8198 5.22369C15.8293 5.23944 15.838 5.25329 15.8458 5.26521L15.881 5.31334C16.0699 5.51914 16.386 5.64346 16.5946 5.64346C18.5673 5.64346 20.1668 7.24267 20.1668 9.21479V14.5269C20.1668 17.0424 18.1265 19.0827 15.611 19.0827H6.38933C3.87317 19.0827 1.8335 17.0427 1.8335 14.5269V9.21479C1.8335 7.24267 3.43306 5.64346 5.40575 5.64346C5.61362 5.64346 5.93015 5.51895 6.11932 5.31334C6.1231 5.30922 6.12803 5.30309 6.13399 5.29497L6.18113 5.22267L6.5945 4.42906ZM14.2008 5.09216C13.9717 4.67614 13.7646 4.445 13.5326 4.35264L13.4232 4.31628C12.4798 4.04963 9.19837 4.06175 8.46682 4.35264C8.23489 4.44495 8.02804 4.67597 7.79918 5.0919L7.44639 5.77399L7.35956 5.93114C7.28707 6.0517 7.21457 6.15348 7.13178 6.24368C6.66752 6.74831 5.98072 7.01846 5.40575 7.01846L5.25533 7.02353C4.1121 7.10083 3.2085 8.05266 3.2085 9.21479V14.5269C3.2085 16.2834 4.63262 17.7077 6.38933 17.7077H15.611C17.3671 17.7077 18.7918 16.283 18.7918 14.5269V9.21479C18.7918 8.00213 17.8079 7.01846 16.5946 7.01846L16.435 7.01179C15.8955 6.96739 15.2895 6.70236 14.868 6.24307C14.7863 6.15407 14.7142 6.05301 14.6421 5.93346C14.6318 5.91631 14.6189 5.89374 14.6042 5.86702L14.4978 5.66742L14.2008 5.09216Z" fill="#A0A0A0"/>
<path d="M16.046 7.79199C16.5523 7.79199 16.9627 8.2024 16.9627 8.70866C16.9627 9.17876 16.6088 9.56621 16.1529 9.61916L16.046 9.62533C15.5315 9.62533 15.1211 9.21492 15.1211 8.70866C15.1211 8.23856 15.475 7.85111 15.9309 7.79816L16.046 7.79199Z" fill="#A0A0A0"/>
<path fill-rule="evenodd" clip-rule="evenodd" d="M7.39844 12.0342C7.39844 10.0448 9.01066 8.43262 11 8.43262C12.9894 8.43262 14.6016 10.0448 14.6016 12.0342C14.6016 14.0236 12.9894 15.6358 11 15.6358C9.01066 15.6358 7.39844 14.0236 7.39844 12.0342ZM13.2266 12.0342C13.2266 10.8042 12.23 9.80762 11 9.80762C9.77005 9.80762 8.77344 10.8042 8.77344 12.0342C8.77344 13.2642 9.77005 14.2608 11 14.2608C12.23 14.2608 13.2266 13.2642 13.2266 12.0342Z" fill="#A0A0A0"/>
</svg>
