<svg width="21" height="21" viewBox="0 0 21 21" fill="none" xmlns="http://www.w3.org/2000/svg">
<path d="M12.5563 1.75H8.44379C7.53379 1.75 6.79004 2.485 6.79004 3.395V4.2175C6.79004 5.1275 7.52504 5.8625 8.43504 5.8625H12.5563C13.4663 5.8625 14.2013 5.1275 14.2013 4.2175V3.395C14.21 2.485 13.4663 1.75 12.5563 1.75Z" fill="white"/>
<path d="M15.0852 4.21754C15.0852 5.60879 13.9477 6.74629 12.5564 6.74629H8.44391C7.05266 6.74629 5.91516 5.60879 5.91516 4.21754C5.91516 3.72754 5.39016 3.42129 4.95266 3.64879C3.71891 4.30504 2.87891 5.60879 2.87891 7.10504V15.3388C2.87891 17.4913 4.63766 19.25 6.79016 19.25H14.2102C16.3627 19.25 18.1214 17.4913 18.1214 15.3388V7.10504C18.1214 5.60879 17.2814 4.30504 16.0477 3.64879C15.6102 3.42129 15.0852 3.72754 15.0852 4.21754ZM10.8327 14.8313H7.00016C6.64141 14.8313 6.34391 14.5338 6.34391 14.175C6.34391 13.8163 6.64141 13.5188 7.00016 13.5188H10.8327C11.1914 13.5188 11.4889 13.8163 11.4889 14.175C11.4889 14.5338 11.1914 14.8313 10.8327 14.8313ZM13.1252 11.3313H7.00016C6.64141 11.3313 6.34391 11.0338 6.34391 10.675C6.34391 10.3163 6.64141 10.0188 7.00016 10.0188H13.1252C13.4839 10.0188 13.7814 10.3163 13.7814 10.675C13.7814 11.0338 13.4839 11.3313 13.1252 11.3313Z" fill="white"/>
</svg>
