<svg width="26" height="12" viewBox="0 0 26 12" fill="none" xmlns="http://www.w3.org/2000/svg">
<path fill-rule="evenodd" clip-rule="evenodd" d="M8.30992 9.2441e-05C8.68852 9.2441e-05 9.06651 0.0516183 9.42591 0.167986C11.6405 0.862717 12.4385 3.20743 11.7719 5.25689C11.3939 6.3042 10.7759 7.26003 9.96651 8.04102C8.80792 9.12365 7.53653 10.0847 6.16794 10.9126L6.01795 11L5.86195 10.9068C4.48856 10.0847 3.20998 9.12365 2.04059 8.03524C1.2366 7.25424 0.618003 6.3042 0.234007 5.25689C-0.443985 3.20743 0.354006 0.862717 2.59258 0.155828C2.76658 0.0979337 2.94598 0.0574077 3.12598 0.034829H3.19798C3.36657 0.0110923 3.53397 9.2441e-05 3.70197 9.2441e-05H3.76797C4.14597 0.0110923 4.51196 0.074776 4.86656 0.191143H4.90196C4.92596 0.202143 4.94396 0.214301 4.95596 0.225301C5.08856 0.266406 5.21395 0.312721 5.33395 0.376405L5.56195 0.474825C5.61704 0.503177 5.67888 0.546498 5.73232 0.583938C5.76619 0.60766 5.79668 0.629021 5.81995 0.642719C5.82974 0.648294 5.83969 0.653899 5.84973 0.659551C5.90117 0.688528 5.95476 0.718712 5.99995 0.752139C6.66654 0.260617 7.47593 -0.00569698 8.30992 9.2441e-05ZM9.90762 4.16821C10.1536 4.16184 10.3636 3.97137 10.3816 3.72763V3.65874C10.3996 2.84764 9.89022 2.11296 9.11562 1.82928C8.86963 1.74765 8.59963 1.8756 8.50963 2.11875C8.42563 2.36191 8.55763 2.62822 8.80963 2.71448C9.19422 2.85343 9.45162 3.21874 9.45162 3.62342V3.64137C9.44022 3.77395 9.48162 3.9019 9.56562 4.00032C9.64962 4.09874 9.77562 4.15605 9.90762 4.16821Z" fill="#EA4335"/>
<path d="M19 6C19 9.32 16.32 12 13 12C9.68 12 7 9.32 7 6C7 2.68 9.68 0 13 0C16.32 0 19 2.68 19 6Z" fill="#FFDD67"/>
<path d="M16.4016 7.19953C16.4016 7.03953 16.3016 6.83953 16.0416 6.77953C15.3416 6.63953 14.3216 6.51953 13.0016 6.51953C11.6816 6.51953 10.6616 6.65953 9.96156 6.77953C9.70156 6.83953 9.60156 7.03953 9.60156 7.19953C9.60156 8.65953 10.7216 10.1195 13.0016 10.1195C15.2816 10.1195 16.4016 8.65953 16.4016 7.19953Z" fill="#664E27"/>
<path d="M12.3021 4.9775C11.9221 3.9575 11.3621 3.4375 10.8021 3.4375C10.2421 3.4375 9.68209 3.9575 9.30209 4.9775C9.26209 5.0775 9.46209 5.2575 9.56209 5.1575C9.92209 4.7775 10.3621 4.6175 10.8021 4.6175C11.2421 4.6175 11.6821 4.7775 12.0421 5.1575C12.1621 5.2575 12.3421 5.0775 12.3021 4.9775Z" fill="#664E27"/>
<path d="M16.6771 4.9775C16.2971 3.9575 15.7371 3.4375 15.1771 3.4375C14.6171 3.4375 14.0571 3.9575 13.6771 4.9775C13.6371 5.0775 13.8371 5.2575 13.9371 5.1575C14.2971 4.7775 14.7371 4.6175 15.1771 4.6175C15.6371 4.6175 16.0571 4.7775 16.4171 5.1575C16.5171 5.2575 16.7171 5.0775 16.6771 4.9775Z" fill="#664E27"/>
<path d="M15.5411 7.2625C15.1011 7.1825 14.1811 7.0625 13.0011 7.0625C11.8211 7.0625 10.9011 7.1825 10.4611 7.2625C10.2011 7.3025 10.1811 7.4025 10.2011 7.5625C10.2211 7.6425 10.2211 7.7625 10.2611 7.8825C10.2811 8.0025 10.3211 8.0625 10.5211 8.0425C10.9011 8.0025 15.1211 8.0025 15.5011 8.0425C15.7011 8.0625 15.7211 8.0025 15.7611 7.8825C15.7811 7.7625 15.8011 7.6625 15.8211 7.5625C15.8211 7.4025 15.8011 7.3025 15.5411 7.2625Z" fill="white"/>
<path d="M19 6C19 9.32 16.32 12 13 12C9.68 12 7 9.32 7 6C7 2.68 9.68 0 13 0C16.32 0 19 2.68 19 6Z" fill="#FFDD67"/>
<path d="M16.4016 7.19953C16.4016 7.03953 16.3016 6.83953 16.0416 6.77953C15.3416 6.63953 14.3216 6.51953 13.0016 6.51953C11.6816 6.51953 10.6616 6.65953 9.96156 6.77953C9.70156 6.83953 9.60156 7.03953 9.60156 7.19953C9.60156 8.65953 10.7216 10.1195 13.0016 10.1195C15.2816 10.1195 16.4016 8.65953 16.4016 7.19953Z" fill="#664E27"/>
<path d="M12.3021 4.9775C11.9221 3.9575 11.3621 3.4375 10.8021 3.4375C10.2421 3.4375 9.68209 3.9575 9.30209 4.9775C9.26209 5.0775 9.46209 5.2575 9.56209 5.1575C9.92209 4.7775 10.3621 4.6175 10.8021 4.6175C11.2421 4.6175 11.6821 4.7775 12.0421 5.1575C12.1621 5.2575 12.3421 5.0775 12.3021 4.9775Z" fill="#664E27"/>
<path d="M16.6771 4.9775C16.2971 3.9575 15.7371 3.4375 15.1771 3.4375C14.6171 3.4375 14.0571 3.9575 13.6771 4.9775C13.6371 5.0775 13.8371 5.2575 13.9371 5.1575C14.2971 4.7775 14.7371 4.6175 15.1771 4.6175C15.6371 4.6175 16.0571 4.7775 16.4171 5.1575C16.5171 5.2575 16.7171 5.0775 16.6771 4.9775Z" fill="#664E27"/>
<path d="M15.5411 7.2625C15.1011 7.1825 14.1811 7.0625 13.0011 7.0625C11.8211 7.0625 10.9011 7.1825 10.4611 7.2625C10.2011 7.3025 10.1811 7.4025 10.2011 7.5625C10.2211 7.6425 10.2211 7.7625 10.2611 7.8825C10.2811 8.0025 10.3211 8.0425 10.5211 8.0425H15.5011C15.7011 8.0425 15.7211 8.0025 15.7611 7.8825C15.7811 7.7625 15.8011 7.6625 15.8211 7.5625C15.8211 7.4025 15.8011 7.3025 15.5411 7.2625Z" fill="white"/>
<path d="M20 12C23.3137 12 26 9.31371 26 6C26 2.68629 23.3137 0 20 0C16.6863 0 14 2.68629 14 6C14 9.31371 16.6863 12 20 12Z" fill="#FFDD67"/>
<path d="M21.7236 8.88281C20.6436 8.38281 19.3636 8.38281 18.2836 8.88281C18.0236 9.00281 18.3436 9.72281 18.6236 9.58281C19.3436 9.24281 20.4036 9.12281 21.4036 9.58281C21.6636 9.70281 22.0036 9.02281 21.7236 8.88281Z" fill="#664E27"/>
<path d="M24.4047 5.8C24.4047 6.8 23.6047 7.6 22.6047 7.6C21.6047 7.6 20.8047 6.8 20.8047 5.8C20.8047 4.8 21.6047 4 22.6047 4C23.6047 4 24.4047 4.8 24.4047 5.8Z" fill="white"/>
<path d="M22.5984 7.00156C23.2612 7.00156 23.7984 6.4643 23.7984 5.80156C23.7984 5.13882 23.2612 4.60156 22.5984 4.60156C21.9357 4.60156 21.3984 5.13882 21.3984 5.80156C21.3984 6.4643 21.9357 7.00156 22.5984 7.00156Z" fill="#664E27"/>
<path d="M22.9116 7.3425C23.2208 7.3425 23.4716 7.05596 23.4716 6.7025C23.4716 6.34904 23.2208 6.0625 22.9116 6.0625C22.6023 6.0625 22.3516 6.34904 22.3516 6.7025C22.3516 7.05596 22.6023 7.3425 22.9116 7.3425Z" fill="white"/>
<path d="M22.1559 6.18188C22.3327 6.18188 22.4759 6.01174 22.4759 5.80187C22.4759 5.59201 22.3327 5.42188 22.1559 5.42188C21.9792 5.42188 21.8359 5.59201 21.8359 5.80187C21.8359 6.01174 21.9792 6.18188 22.1559 6.18188Z" fill="white"/>
<path d="M19.1937 5.8C19.1937 6.8 18.3937 7.6 17.3937 7.6C16.3937 7.6 15.5938 6.8 15.5938 5.8C15.5938 4.8 16.3937 4 17.3937 4C18.3937 4 19.1937 4.8 19.1937 5.8Z" fill="white"/>
<path d="M17.4031 7.00156C18.0659 7.00156 18.6031 6.4643 18.6031 5.80156C18.6031 5.13882 18.0659 4.60156 17.4031 4.60156C16.7404 4.60156 16.2031 5.13882 16.2031 5.80156C16.2031 6.4643 16.7404 7.00156 17.4031 7.00156Z" fill="#664E27"/>
<path d="M17.7163 7.3425C18.0255 7.3425 18.2763 7.05596 18.2763 6.7025C18.2763 6.34904 18.0255 6.0625 17.7163 6.0625C17.407 6.0625 17.1562 6.34904 17.1562 6.7025C17.1562 7.05596 17.407 7.3425 17.7163 7.3425Z" fill="white"/>
<path d="M16.9606 6.18188C17.1374 6.18188 17.2806 6.01174 17.2806 5.80187C17.2806 5.59201 17.1374 5.42188 16.9606 5.42188C16.7839 5.42188 16.6406 5.59201 16.6406 5.80187C16.6406 6.01174 16.7839 6.18188 16.9606 6.18188Z" fill="white"/>
<path d="M22.9984 6.79688C21.9784 8.15687 21.3984 9.39687 21.3984 10.4169C21.3984 11.2969 22.1184 11.9969 22.9984 11.9969C23.8784 11.9969 24.5984 11.2969 24.5984 10.4169C24.5984 9.39687 23.9984 8.13687 22.9984 6.79688Z" fill="#65B1EF"/>
<path d="M24.2397 3.74169C23.5997 3.20169 22.7397 2.96169 21.8997 3.12169C21.7797 3.14169 21.6797 2.72169 21.8197 2.68169C22.7797 2.50169 23.7797 2.78169 24.5197 3.40169C24.6397 3.50169 24.3197 3.82169 24.2397 3.74169ZM18.0997 3.08169C17.2597 2.94169 16.3997 3.16169 15.7597 3.70169C15.6797 3.78169 15.3597 3.46169 15.4797 3.36169C16.2197 2.72169 17.2197 2.46169 18.1797 2.64169C18.3197 2.68169 18.2197 3.10169 18.0997 3.08169Z" fill="#917524"/>
</svg>
