<svg width="23" height="22" viewBox="0 0 23 22" fill="none" xmlns="http://www.w3.org/2000/svg">
<path d="M16.371 16.8933H12.7043L8.62513 19.6066C8.02013 20.0099 7.2043 19.5791 7.2043 18.8458V16.8933C4.4543 16.8933 2.62097 15.06 2.62097 12.31V6.8099C2.62097 4.0599 4.4543 2.22656 7.2043 2.22656H16.371C19.121 2.22656 20.9543 4.0599 20.9543 6.8099V12.31C20.9543 15.06 19.121 16.8933 16.371 16.8933Z" stroke="#292D32" stroke-width="1.5" stroke-miterlimit="10" stroke-linecap="round" stroke-linejoin="round"/>
<path d="M11.7876 10.4141V10.2216C11.7876 9.59826 12.1727 9.26825 12.5577 9.00242C12.9335 8.74575 13.3093 8.41576 13.3093 7.81076C13.3093 6.96743 12.631 6.28906 11.7876 6.28906C10.9443 6.28906 10.266 6.96743 10.266 7.81076" stroke="#292D32" stroke-width="1.5" stroke-linecap="round" stroke-linejoin="round"/>
<path d="M11.7834 12.6048H11.7917" stroke="#292D32" stroke-width="1.5" stroke-linecap="round" stroke-linejoin="round"/>
</svg>
