<svg width="17" height="16" viewBox="0 0 17 16" fill="none" xmlns="http://www.w3.org/2000/svg">
<path fill-rule="evenodd" clip-rule="evenodd" d="M7.24009 13.043H1.46417C1.08467 13.043 0.776672 12.735 0.776672 12.3555C0.776672 11.976 1.08467 11.668 1.46417 11.668H7.24009C7.61959 11.668 7.92759 11.976 7.92759 12.3555C7.92759 12.735 7.61959 13.043 7.24009 13.043Z" fill="#606060"/>
<path fill-rule="evenodd" clip-rule="evenodd" d="M15.5917 4.15869H9.81665C9.43715 4.15869 9.12915 3.85069 9.12915 3.47119C9.12915 3.09169 9.43715 2.78369 9.81665 2.78369H15.5917C15.9711 2.78369 16.2792 3.09169 16.2792 3.47119C16.2792 3.85069 15.9711 4.15869 15.5917 4.15869Z" fill="#606060"/>
<mask id="mask0_412_2011" style="mask-type:luminance" maskUnits="userSpaceOnUse" x="0" y="0" width="7" height="7">
<path fill-rule="evenodd" clip-rule="evenodd" d="M0.75 0.583496H6.45698V6.25913H0.75V0.583496Z" fill="white"/>
</mask>
<g mask="url(#mask0_412_2011)">
<path fill-rule="evenodd" clip-rule="evenodd" d="M3.6034 1.95801C2.78848 1.95801 2.12482 2.61434 2.12482 3.42192C2.12482 4.22859 2.78848 4.88401 3.6034 4.88401C4.41923 4.88401 5.08198 4.22859 5.08198 3.42192C5.08198 2.61434 4.41923 1.95801 3.6034 1.95801ZM3.6034 6.25901C2.0304 6.25901 0.749817 4.98667 0.749817 3.42192C0.749817 1.85717 2.0304 0.583008 3.6034 0.583008C5.17732 0.583008 6.45698 1.85717 6.45698 3.42192C6.45698 4.98667 5.17732 6.25901 3.6034 6.25901Z" fill="#606060"/>
</g>
<path fill-rule="evenodd" clip-rule="evenodd" d="M13.9387 10.8569C13.1229 10.8569 12.4592 11.5133 12.4592 12.3199C12.4592 13.1275 13.1229 13.7829 13.9387 13.7829C14.7536 13.7829 15.4164 13.1275 15.4164 12.3199C15.4164 11.5133 14.7536 10.8569 13.9387 10.8569ZM13.9387 15.1579C12.3648 15.1579 11.0842 13.8847 11.0842 12.3199C11.0842 10.7552 12.3648 9.48193 13.9387 9.48193C15.5117 9.48193 16.7914 10.7552 16.7914 12.3199C16.7914 13.8847 15.5117 15.1579 13.9387 15.1579Z" fill="#606060"/>
</svg>
