<svg width="22" height="21" viewBox="0 0 22 21" fill="none" xmlns="http://www.w3.org/2000/svg">
<path d="M2.90634 16.3189C2.54759 16.3189 2.25009 16.0214 2.25009 15.6627V10.6752C2.20634 8.30395 3.09009 6.06395 4.73509 4.38395C6.38009 2.7127 8.58508 1.79395 10.9563 1.79395C15.8038 1.79395 19.7501 5.7402 19.7501 10.5877V15.5752C19.7501 15.9339 19.4526 16.2314 19.0938 16.2314C18.7351 16.2314 18.4376 15.9339 18.4376 15.5752V10.5877C18.4376 6.46645 15.0863 3.10645 10.9563 3.10645C8.93508 3.10645 7.06258 3.8852 5.67133 5.3027C4.27134 6.72895 3.52759 8.6277 3.56259 10.6577V15.6539C3.56259 16.0214 3.27384 16.3189 2.90634 16.3189Z" fill="white"/>
<path d="M5.6975 10.8936H5.58375C3.74625 10.8936 2.25 12.3898 2.25 14.2273V15.8723C2.25 17.7098 3.74625 19.2061 5.58375 19.2061H5.6975C7.535 19.2061 9.03125 17.7098 9.03125 15.8723V14.2273C9.03125 12.3898 7.535 10.8936 5.6975 10.8936Z" fill="white"/>
<path d="M16.4163 10.8936H16.3025C14.465 10.8936 12.9688 12.3898 12.9688 14.2273V15.8723C12.9688 17.7098 14.465 19.2061 16.3025 19.2061H16.4163C18.2538 19.2061 19.75 17.7098 19.75 15.8723V14.2273C19.75 12.3898 18.2538 10.8936 16.4163 10.8936Z" fill="white"/>
</svg>
