<svg width="20" height="20" viewBox="0 0 20 20" fill="none" xmlns="http://www.w3.org/2000/svg">
<path d="M15.2082 6.25046L15.2082 7.50879C15.2082 7.85046 14.9248 8.13379 14.5832 8.13379C14.2415 8.13379 13.9582 7.85046 13.9582 7.50879L13.9582 6.25046C13.9582 4.06712 12.1832 2.29212 9.99984 2.29212C7.8165 2.29212 6.0415 4.06712 6.0415 6.25046L6.0415 7.50046C6.0415 7.84212 5.75817 8.12546 5.4165 8.12546C5.07484 8.12546 4.7915 7.85046 4.7915 7.50046L4.7915 6.25046C4.7915 3.37546 7.12484 1.04212 9.99984 1.04212C12.8748 1.04212 15.2082 3.37545 15.2082 6.25046Z" fill="#A0A0A0"/>
<path d="M15.2082 12.4997L15.2082 13.7497C15.2082 16.6247 12.8748 18.958 9.99984 18.958C7.12484 18.958 4.7915 16.6247 4.7915 13.7497L4.7915 12.4997C4.7915 12.158 5.07484 11.8747 5.4165 11.8747C5.75817 11.8747 6.0415 12.158 6.0415 12.4997L6.0415 13.7497C6.0415 15.933 7.8165 17.708 9.99984 17.708C12.1832 17.708 13.9582 15.933 13.9582 13.7497L13.9582 12.4997C13.9582 12.158 14.2415 11.8747 14.5832 11.8747C14.9248 11.8747 15.2082 12.158 15.2082 12.4997Z" fill="#A0A0A0"/>
<path d="M10.625 6.66634L10.625 13.333C10.625 13.6747 10.3417 13.958 10 13.958C9.65833 13.958 9.375 13.6747 9.375 13.333L9.375 6.66634C9.375 6.32467 9.65833 6.04134 10 6.04134C10.3417 6.04134 10.625 6.32467 10.625 6.66634Z" fill="#A0A0A0"/>
</svg>
