<svg width="23" height="23" viewBox="0 0 23 23" fill="none" xmlns="http://www.w3.org/2000/svg">
<path d="M11.7881 12.4778C11.4125 12.4778 11.0406 12.4038 10.6936 12.2601C10.3466 12.1164 10.0313 11.9057 9.76575 11.6401C9.50017 11.3746 9.2895 11.0593 9.14578 10.7123C9.00205 10.3653 8.92807 9.99339 8.92807 9.61781C8.92807 9.24223 9.00205 8.87033 9.14578 8.52334C9.2895 8.17635 9.50017 7.86106 9.76575 7.59549C10.0313 7.32991 10.3466 7.11925 10.6936 6.97552C11.0406 6.83179 11.4125 6.75781 11.7881 6.75781C12.5466 6.75781 13.274 7.05913 13.8104 7.59549C14.3468 8.13184 14.6481 8.85929 14.6481 9.61781C14.6481 10.3763 14.3468 11.1038 13.8104 11.6401C13.274 12.1765 12.5466 12.4778 11.7881 12.4778Z" stroke="black" stroke-width="1.5"/>
<path d="M19.4695 7.94917C17.6637 0.0108354 5.90282 0.0200023 4.10616 7.95834C3.05199 12.615 5.94866 16.5567 8.48782 18.995C9.37509 19.8507 10.5597 20.3289 11.7924 20.3289C13.0251 20.3289 14.2097 19.8507 15.097 18.995C17.627 16.5567 20.5237 12.6058 19.4695 7.94917Z" stroke="black" stroke-width="1.5"/>
</svg>
