<svg width="20" height="19" viewBox="0 0 20 19" fill="none" xmlns="http://www.w3.org/2000/svg">
<path fill-rule="evenodd" clip-rule="evenodd" d="M18.3344 10.8881H1.94943C1.62642 10.8881 1.36426 10.626 1.36426 10.303C1.36426 9.97993 1.62642 9.71777 1.94943 9.71777H18.3344C18.6574 9.71777 18.9196 9.97993 18.9196 10.303C18.9196 10.626 18.6574 10.8881 18.3344 10.8881Z" fill="#E7E7E7"/>
<path fill-rule="evenodd" clip-rule="evenodd" d="M16.8755 7.60351C16.5525 7.60351 16.2903 7.34135 16.2903 7.01833V5.83706C16.2903 4.55513 15.2463 3.51117 13.9629 3.51117H13.0227C12.6997 3.51117 12.4375 3.24901 12.4375 2.926C12.4375 2.60298 12.6997 2.34082 13.0227 2.34082H13.9629C15.8916 2.34082 17.4607 3.90987 17.4607 5.83706V7.01833C17.4607 7.34135 17.1985 7.60351 16.8755 7.60351Z" fill="#E7E7E7"/>
<path fill-rule="evenodd" clip-rule="evenodd" d="M3.40842 7.60351C3.0854 7.60351 2.82324 7.34135 2.82324 7.01833V5.83706C2.82324 3.90987 4.3923 2.34082 6.32104 2.34082H7.28541C7.60843 2.34082 7.87059 2.60298 7.87059 2.926C7.87059 3.24901 7.60843 3.51117 7.28541 3.51117H6.32104C5.03755 3.51117 3.9936 4.55513 3.9936 5.83706V7.01833C3.9936 7.34135 3.73144 7.60351 3.40842 7.60351Z" fill="#E7E7E7"/>
<path fill-rule="evenodd" clip-rule="evenodd" d="M13.9629 16.9784H13.0227C12.6997 16.9784 12.4375 16.7163 12.4375 16.3933C12.4375 16.0703 12.6997 15.8081 13.0227 15.8081H13.9629C15.2463 15.8081 16.2903 14.7641 16.2903 13.4814V10.302C16.2903 9.97896 16.5525 9.7168 16.8755 9.7168C17.1985 9.7168 17.4607 9.97896 17.4607 10.302V13.4814C17.4607 15.4094 15.8916 16.9784 13.9629 16.9784Z" fill="#E7E7E7"/>
<path fill-rule="evenodd" clip-rule="evenodd" d="M7.28541 16.9784H6.32104C4.3923 16.9784 2.82324 15.4094 2.82324 13.4814V10.302C2.82324 9.97896 3.0854 9.7168 3.40842 9.7168C3.73144 9.7168 3.9936 9.97896 3.9936 10.302V13.4814C3.9936 14.7641 5.03755 15.8081 6.32104 15.8081H7.28541C7.60843 15.8081 7.87059 16.0703 7.87059 16.3933C7.87059 16.7163 7.60843 16.9784 7.28541 16.9784Z" fill="#E7E7E7"/>
</svg>
