<svg width="23" height="22" viewBox="0 0 23 22" fill="none" xmlns="http://www.w3.org/2000/svg">
<path d="M3.53772 8.35026V13.6394C3.53772 15.5828 3.53772 15.5828 5.37105 16.8203L10.4127 19.7353C11.1736 20.1753 12.4111 20.1753 13.1627 19.7353L18.2044 16.8203C20.0377 15.5828 20.0377 15.5828 20.0377 13.6486V8.35026C20.0377 6.41609 20.0377 6.41609 18.2044 5.17859L13.1627 2.26359C12.4111 1.82359 11.1736 1.82359 10.4127 2.26359L5.37105 5.17859C3.53772 6.41609 3.53772 6.41609 3.53772 8.35026Z" stroke="black" stroke-width="1.5" stroke-linecap="round" stroke-linejoin="round"/>
<path d="M11.7877 13.75C12.5171 13.75 13.2165 13.4603 13.7323 12.9445C14.248 12.4288 14.5377 11.7293 14.5377 11C14.5377 10.2707 14.248 9.57118 13.7323 9.05546C13.2165 8.53973 12.5171 8.25 11.7877 8.25C11.0584 8.25 10.3589 8.53973 9.84318 9.05546C9.32745 9.57118 9.03772 10.2707 9.03772 11C9.03772 11.7293 9.32745 12.4288 9.84318 12.9445C10.3589 13.4603 11.0584 13.75 11.7877 13.75Z" stroke="black" stroke-width="1.5" stroke-linecap="round" stroke-linejoin="round"/>
</svg>
