<svg width="19" height="16" viewBox="0 0 19 16" fill="none" xmlns="http://www.w3.org/2000/svg">
<path d="M9.76469 0.191913V12.376C9.76387 12.4148 9.77493 12.4531 9.79654 12.4861C9.81816 12.5192 9.84941 12.5457 9.88657 12.5624C9.92372 12.5792 9.9652 12.5855 10.0061 12.5806C10.0469 12.5757 10.0854 12.5597 10.117 12.5348L18.112 6.44273C18.1373 6.42531 18.1579 6.40246 18.1721 6.37612C18.1863 6.34978 18.1937 6.32072 18.1937 6.29118C18.1937 6.26163 18.1863 6.23258 18.1721 6.20624C18.1579 6.1799 18.1373 6.15705 18.112 6.13963L10.117 0.0475861C10.0864 0.0233456 10.0493 0.0075538 10.0098 0.00212047C9.97029 -0.00331286 9.92996 0.00174197 9.89335 0.016747C9.85673 0.0317521 9.82528 0.0561214 9.80255 0.0870601C9.77982 0.117999 9.76671 0.154329 9.76469 0.191913Z" fill="#A1A1A1"/>
<path d="M10.107 9.21622C9.21405 8.94028 8.26899 8.84669 7.33474 8.94184C6.29065 9.05647 5.28367 9.37616 4.37873 9.88023C3.38308 10.4313 2.52196 11.1741 1.85158 12.0601C1.11212 13.0228 0.590769 14.1186 0.319963 15.2794H0.212739C-0.0709129 13.9939 -0.0709129 12.6672 0.212739 11.3817C0.516922 9.99768 1.11614 8.68629 1.97409 7.52712C2.88702 6.2825 4.05962 5.22635 5.42022 4.4233C6.87634 3.56304 8.50167 2.98867 10.1989 2.73438L10.107 9.21622Z" fill="#A1A1A1"/>
</svg>
