<svg width="11" height="11" viewBox="0 0 11 11" fill="none" xmlns="http://www.w3.org/2000/svg">
<path d="M10.3125 5.04199H1.14583V1.17824C1.14583 0.916992 1.38875 0.687818 1.66603 0.687818H2.62395C2.89438 0.687818 3.11208 0.907818 3.11438 1.17594C2.6675 1.28824 2.29167 1.70074 2.29167 2.13614V2.75032C2.29167 2.87637 2.3948 2.97949 2.52085 2.97949H4.125C4.25105 2.97949 4.35417 2.87637 4.35417 2.75032V2.13617C4.35417 1.69387 4.00355 1.28824 3.57272 1.17824C3.57272 0.655742 3.14877 0.229492 2.62397 0.229492H1.66605C1.13667 0.229492 0.6875 0.664916 0.6875 1.17824V5.04199C0.309375 5.03969 0.00229883 5.34679 0 5.72492C0 5.92199 0.0825 6.10762 0.229174 6.23824V7.43907C0.229174 8.37177 0.643973 9.17157 1.31542 9.69177L0.939598 10.4388C0.882299 10.5511 0.928146 10.6886 1.04272 10.7459C1.15502 10.8032 1.29252 10.7574 1.3498 10.6428L1.70272 9.93925C2.16565 10.1867 2.68355 10.3151 3.20835 10.3105H7.79167C8.31647 10.3151 8.83438 10.1867 9.2973 9.93925L9.65022 10.6428C9.70752 10.7551 9.84502 10.8009 9.9573 10.7459C10.0696 10.6909 10.1154 10.5511 10.0604 10.4388L9.6846 9.68947C10.356 9.17155 10.7708 8.36947 10.7708 7.43677V6.23594C10.9152 6.1099 11 5.92427 11 5.72949C11 5.34909 10.6929 5.04199 10.3125 5.04199ZM3.34355 1.60449C3.61625 1.60449 3.89585 1.87262 3.89585 2.13617V2.52117H2.75V2.13617C2.75 1.88179 3.05938 1.60449 3.34355 1.60449ZM10.3125 7.43909C10.3125 8.81639 9.22855 9.85451 7.79167 9.85451H3.20833C1.77145 9.85449 0.6875 8.81637 0.6875 7.43909V6.41701H10.3125V7.43909ZM10.3125 5.95867H0.694375C0.579799 5.95867 0.476674 5.87617 0.460625 5.76387C0.44 5.62179 0.55 5.50032 0.6875 5.50032H10.3056C10.4202 5.50032 10.5233 5.58282 10.5394 5.69512C10.56 5.83721 10.45 5.95867 10.3125 5.95867Z" fill="#202020"/>
</svg>
