<svg width="12" height="12" viewBox="0 0 12 12" fill="none" xmlns="http://www.w3.org/2000/svg">
<path d="M6 3C6.20711 3 6.375 3.16789 6.375 3.375V4.5C6.375 4.70711 6.20711 4.875 6 4.875C5.79289 4.875 5.625 4.70711 5.625 4.5V3.375C5.625 3.16789 5.79289 3 6 3Z" fill="black"/>
<path d="M2.79918 4.29917C2.94562 4.15273 3.18306 4.15273 3.3295 4.29917L4.01517 4.98484C4.16161 5.13128 4.16161 5.36872 4.01516 5.51517C3.86872 5.66161 3.63128 5.66161 3.48483 5.51516L2.79917 4.8295C2.65273 4.68306 2.65273 4.44562 2.79918 4.29917Z" fill="black"/>
<path d="M1.5 7.5C1.5 7.29289 1.66789 7.125 1.875 7.125H3.06434C3.27145 7.125 3.43934 7.29289 3.43934 7.5C3.43934 7.70711 3.27145 7.875 3.06434 7.875H1.875C1.66789 7.875 1.5 7.70711 1.5 7.5Z" fill="black"/>
<path d="M8.625 7.5C8.625 7.29289 8.79289 7.125 9 7.125H10.125C10.3321 7.125 10.5 7.29289 10.5 7.5C10.5 7.70711 10.3321 7.875 10.125 7.875H9C8.79289 7.875 8.625 7.70711 8.625 7.5Z" fill="black"/>
<path d="M9.19076 4.31567C9.08314 4.20805 8.91084 4.20136 8.7952 4.30032L5.66045 6.98292C5.35835 7.24144 5.34046 7.70249 5.62162 7.98365C5.90926 8.27129 6.3831 8.24489 6.63701 7.92708L9.21237 4.70365C9.30502 4.58769 9.29571 4.42062 9.19076 4.31567Z" fill="black"/>
<path fill-rule="evenodd" clip-rule="evenodd" d="M0 7.5C0 4.18629 2.68629 1.5 6 1.5C9.31371 1.5 12 4.18629 12 7.5C12 8.19908 11.8803 8.87101 11.6599 9.4959C11.3285 10.4358 10.2767 10.6976 9.46102 10.4332C8.4819 10.1159 7.10558 9.75 6 9.75C4.89442 9.75 3.5181 10.1159 2.53898 10.4332C1.72326 10.6976 0.671505 10.4358 0.340073 9.4959C0.119715 8.87101 0 8.19908 0 7.5ZM6 2.25C3.1005 2.25 0.75 4.6005 0.75 7.5C0.75 8.11295 0.854888 8.7006 1.04738 9.24648C1.19966 9.6783 1.73984 9.90379 2.30777 9.71975C3.29709 9.39915 4.76879 9 6 9C7.23121 9 8.70291 9.39915 9.69223 9.71975C10.2602 9.90379 10.8003 9.6783 10.9526 9.24648C11.1451 8.7006 11.25 8.11295 11.25 7.5C11.25 4.6005 8.8995 2.25 6 2.25Z" fill="black"/>
</svg>
