<svg width="23" height="23" viewBox="0 0 23 23" fill="none" xmlns="http://www.w3.org/2000/svg">
<path d="M9.03739 13.6901L14.5374 8.1901M18.6624 11.6276C18.6624 11.0198 18.9038 10.4369 19.3336 10.0072C19.7634 9.57738 20.3463 9.33594 20.9541 9.33594V8.41927C20.9541 4.7526 20.0374 3.83594 16.3707 3.83594H7.20406C3.53739 3.83594 2.62073 4.7526 2.62073 8.41927V8.8776C3.22852 8.8776 3.81141 9.11905 4.24118 9.54882C4.67095 9.97859 4.91239 10.5615 4.91239 11.1693C4.91239 11.7771 4.67095 12.36 4.24118 12.7897C3.81141 13.2195 3.22852 13.4609 2.62073 13.4609V13.9193C2.62073 17.5859 3.53739 18.5026 7.20406 18.5026H16.3707C20.0374 18.5026 20.9541 17.5859 20.9541 13.9193C20.3463 13.9193 19.7634 13.6778 19.3336 13.2481C18.9038 12.8183 18.6624 12.2354 18.6624 11.6276Z" stroke="black" stroke-width="1.5" stroke-linecap="round" stroke-linejoin="round"/>
<path d="M14.5328 13.6901H14.5411M9.03284 8.64844H9.04017" stroke="black" stroke-width="2" stroke-linecap="round" stroke-linejoin="round"/>
</svg>
