<svg width="21" height="21" viewBox="0 0 21 21" fill="none" xmlns="http://www.w3.org/2000/svg">
<path d="M14.1663 1.75H6.83375C3.64875 1.75 1.75 3.64875 1.75 6.83375V14.1575C1.75 17.3513 3.64875 19.25 6.83375 19.25H14.1575C17.3425 19.25 19.2412 17.3513 19.2412 14.1663V6.83375C19.25 3.64875 17.3513 1.75 14.1663 1.75ZM12.8275 12.0138L11.7075 12.6613L10.5875 13.3088C9.14375 14.14 7.9625 13.4575 7.9625 11.795V10.5V9.205C7.9625 7.53375 9.14375 6.86 10.5875 7.69125L11.7075 8.33875L12.8275 8.98625C14.2712 9.8175 14.2712 11.1825 12.8275 12.0138Z" fill="white"/>
</svg>
